HIERARCHY
ROOT Hips
{
	OFFSET 0.00000 0.00000 0.00000
	CHANNELS 6 Xposition Yposition Zposition Zrotation Yrotation Xrotation 
	JOINT LHipJoint
	{
		OFFSET 0 0 0
		CHANNELS 3 Zrotation Yrotation Xrotation
		JOINT LeftHip
		{
			OFFSET 1.54859 -1.61379 0.86856
			CHANNELS 3 Zrotation Yrotation Xrotation
			JOINT LeftKnee
			{
				OFFSET 2.25087 -6.18423 0.00000
				CHANNELS 3 Zrotation Yrotation Xrotation
				JOINT LeftAnkle
				{
					OFFSET 2.40328 -6.60297 0.00000
					CHANNELS 3 Zrotation Yrotation Xrotation
					JOINT LeftToe
					{
						OFFSET 0.17435 -0.47901 2.02453
						CHANNELS 3 Zrotation Yrotation Xrotation
						End Site
						{
							OFFSET 0.00000 -0.00000 1.04844
						}
					}
				}
			}
		}
	}
	JOINT RHipJoint
	{
		OFFSET 0 0 0
		CHANNELS 3 Zrotation Yrotation Xrotation
		JOINT RightHip
		{
			OFFSET -1.54669 -1.61379 0.86856
			CHANNELS 3 Zrotation Yrotation Xrotation
			JOINT RightKnee
			{
				OFFSET -2.28132 -6.26789 0.00000
				CHANNELS 3 Zrotation Yrotation Xrotation
				JOINT RightAnkle
				{
					OFFSET -2.51636 -6.91365 0.00000
					CHANNELS 3 Zrotation Yrotation Xrotation
					JOINT RightToe
					{
						OFFSET -0.15124 -0.41552 2.21090
						CHANNELS 3 Zrotation Yrotation Xrotation
						End Site
						{
							OFFSET -0.00000 -0.00000 1.13399
						}
					}
				}
			}
		}
	}
	JOINT lowerback
	{
		OFFSET 0 0 0
		CHANNELS 3 Zrotation Yrotation Xrotation
		JOINT Chest
		{
			OFFSET -0.04287 2.26161 -0.25690
			CHANNELS 3 Zrotation Yrotation Xrotation
			JOINT Chest2
			{
				OFFSET 0.02248 2.28395 -0.10140
				CHANNELS 3 Zrotation Yrotation Xrotation
				JOINT lowerneck
				{
					OFFSET 0 0 0
					CHANNELS 3 Zrotation Yrotation Xrotation
					JOINT Neck
					{
						OFFSET -0.11644 1.38496 0.11345
						CHANNELS 3 Zrotation Yrotation Xrotation
						JOINT Head
						{
							OFFSET 0.29383 1.36600 0.06642
							CHANNELS 3 Zrotation Yrotation Xrotation
							End Site
							{
								OFFSET 0.11075 1.41395 -0.00294
							}
						}
					}
				}
				JOINT LeftCollar
				{
					OFFSET 0 0 0
					CHANNELS 3 Zrotation Yrotation Xrotation
					JOINT LeftShoulder
					{
						OFFSET 3.51628 0.59542 -0.30346
CHANNELS 3 Zrotation Xrotation Yrotation
						JOINT LeftElbow
						{
OFFSET 0 -4.764050 0.000000
CHANNELS 3 Zrotation Xrotation Yrotation
							JOINT LeftWrist
							{
OFFSET 0 -3.137590 -0.000000
CHANNELS 3 Zrotation Xrotation Yrotation
								JOINT lhand
								{
									OFFSET 0 0 0
CHANNELS 3 Zrotation Xrotation Yrotation
									JOINT LFingers
									{
OFFSET 0 -0.732260 -0.000000
CHANNELS 3 Zrotation Xrotation Yrotation
										End Site
										{
OFFSET 0 -0.590370 -0.000000
										}
									}
								}
								JOINT LThumb
								{
OFFSET 0 0.000000 0.000000
CHANNELS 3 Zrotation Xrotation Yrotation
									End Site
									{
OFFSET 0 -0.599380 0.599380
									}
								}
							}
						}
					}
				}
				JOINT RightCollar
				{
					OFFSET 0 0 0
					CHANNELS 3 Zrotation Yrotation Xrotation
					JOINT RightShoulder
					{
						OFFSET -3.30990 0.84213 -0.36430
CHANNELS 3 Zrotation Xrotation Yrotation
						JOINT RightElbow
						{
OFFSET 0 -5.101610 -0.000000
CHANNELS 3 Zrotation Xrotation Yrotation
							JOINT RightWrist
							{
OFFSET 0 -3.232670 -0.000000
CHANNELS 3 Zrotation Xrotation Yrotation
								JOINT rhand
								{
									OFFSET 0 0 0
CHANNELS 3 Zrotation Xrotation Yrotation
									JOINT RFingers
									{
OFFSET 0 -0.702000 -0.000000
CHANNELS 3 Zrotation Xrotation Yrotation
										End Site
										{
OFFSET 0 -0.565970 -0.000000
										}
									}
								}
								JOINT RThumb
								{
OFFSET 0 0.000000 0.000000
CHANNELS 3 Zrotation Xrotation Yrotation
									End Site
									{
OFFSET 0 -0.574610 0.574610
									}
								}
							}
						}
					}
				}
			}
		}
	}
}
MOTION
Frames: 7
Frame Time: 0.008333333333333333
2.918179 14.240698 6.322666 207.601279 66.491270 216.590419 0.000000 0.000000 0.000000 -14.996663 10.588453 -9.129946 23.083982 19.754095 99.056941 0.074377 3.211528 -7.447008 0.019978 -0.911391 -2.505023 0.000000 0.000000 0.000000 9.525911 10.362237 -40.031687 -7.723874 -15.912224 51.561671 -1.147767 3.739673 -19.329750 -5.485128 13.906687 -42.871992 5.904239 -1.855648 16.994160 6.323935 -0.486307 8.735357 3.442600 0.182359 -0.179413 -5.636700 0.417390 -9.042133 4.407203 1.949792 -12.814735 2.419857 1.417567 -2.689502 0.000000 0.000000 0.000000 0.678764 11.249614 -50.207798 32.189327 -42.683959 12.873789 28.072319 -4.672312 -20.106789 0.000000 0.000000 0.000000 -7.125000 0.000000 0.000000 -0.381068 52.512637 0.070434 0.000000 0.000000 0.000000 -9.812229 -38.846007 44.245972 -93.471016 -59.908493 -63.003837 -23.191459 15.640807 -23.372943 0.000000 0.000000 0.000000 7.125000 0.000000 0.000000 3.686004 4.836462 3.360404
3.032636 14.236395 6.277697 208.890836 66.276709 217.653257 0.000000 0.000000 0.000000 -14.300388 10.847260 -10.191138 23.572945 19.686686 100.500524 0.100630 2.507485 -7.491023 0.018534 -0.879072 -2.416068 0.000000 0.000000 0.000000 10.285234 10.198710 -39.373160 -7.752322 -15.933972 51.665413 -1.217400 3.658718 -19.960550 -5.611485 14.040062 -43.400176 6.447817 -1.738245 17.168979 6.452804 -0.210720 8.807272 3.232401 0.345077 -0.201738 -5.773801 0.231971 -9.219898 4.554210 1.750077 -12.939705 2.495671 1.331500 -2.695105 0.000000 0.000000 0.000000 0.734592 11.542241 -50.236795 31.602080 -42.223877 12.473867 28.114457 -4.372436 -20.102168 0.000000 0.000000 0.000000 -7.125000 0.000000 0.000000 -0.336504 52.515612 0.062203 0.000000 0.000000 0.000000 -9.965388 -38.980422 44.564217 -91.377947 -59.980379 -61.192911 -23.755976 15.813720 -23.801428 0.000000 0.000000 0.000000 7.125000 0.000000 0.000000 3.380611 4.286385 3.121612
3.149114 14.231958 6.235193 209.633073 65.947445 218.019788 0.000000 0.000000 0.000000 -13.768998 10.858341 -10.987640 23.990324 19.605488 101.744540 0.101793 2.297140 -7.325924 0.015136 -0.773504 -2.125814 0.000000 0.000000 0.000000 10.958629 9.809038 -38.430693 -7.741892 -15.926033 51.627407 -1.286189 3.397447 -20.581070 -5.783359 14.209984 -44.096443 6.903269 -1.702330 17.479041 6.551742 -0.028166 8.923750 3.056906 0.463233 -0.235920 -5.871778 0.067091 -9.373462 4.713073 1.577406 -13.072202 2.568576 1.257423 -2.707413 0.000000 0.000000 0.000000 0.847838 11.808090 -50.317660 31.096032 -41.807248 12.136405 28.154730 -4.180780 -20.108671 0.000000 0.000000 0.000000 -7.125000 0.000000 0.000000 -0.296136 52.530444 0.054816 0.000000 0.000000 0.000000 -10.095876 -39.177761 44.776084 -88.757807 -59.933342 -58.925833 -24.459555 15.573245 -24.361915 0.000000 0.000000 0.000000 7.125000 0.000000 0.000000 3.021819 3.554283 2.821249
3.266199 14.227482 6.193431 210.210703 65.583683 218.176903 0.000000 0.000000 0.000000 -13.287198 10.794917 -11.704535 24.386173 19.520143 102.928535 0.095410 2.235276 -7.097934 0.011150 -0.645906 -1.775020 0.000000 0.000000 0.000000 11.606180 9.351354 -37.402831 -7.719769 -15.909166 51.546770 -1.354725 3.081946 -21.198498 -5.968922 14.390897 -44.843260 7.332217 -1.690921 17.829778 6.641679 0.126408 9.053630 2.891848 0.567986 -0.273668 -5.957989 -0.091613 -9.519746 4.875503 1.412868 -13.206963 2.640606 1.186952 -2.721738 0.000000 0.000000 0.000000 0.978354 12.065886 -50.414124 30.614404 -41.403687 11.817727 28.194442 -4.021672 -20.118520 0.000000 0.000000 0.000000 -7.125000 0.000000 0.000000 -0.257031 52.548841 0.047682 0.000000 0.000000 0.000000 -10.219547 -39.394026 44.955958 -85.979150 -59.850539 -56.521566 -25.204956 15.208444 -24.962100 0.000000 0.000000 0.000000 7.125000 0.000000 0.000000 2.646966 2.767436 2.502369
3.383285 14.223005 6.151668 210.788332 65.219921 218.334018 0.000000 0.000000 0.000000 -12.805397 10.731493 -12.421431 24.782022 19.434799 104.112531 0.089027 2.173412 -6.869944 0.007165 -0.518308 -1.424226 0.000000 0.000000 0.000000 12.253731 8.893669 -36.374968 -7.697646 -15.892299 51.466133 -1.423261 2.766445 -21.815926 -6.154485 14.571811 -45.590077 7.761164 -1.679513 18.180515 6.731616 0.280981 9.183510 2.726791 0.672739 -0.311416 -6.044200 -0.250317 -9.666031 5.037932 1.248330 -13.341724 2.712637 1.116481 -2.736063 0.000000 0.000000 0.000000 1.108869 12.323682 -50.510588 30.132777 -41.000127 11.499048 28.234154 -3.862564 -20.128369 0.000000 0.000000 0.000000 -7.125000 0.000000 0.000000 -0.217925 52.567239 0.040548 0.000000 0.000000 0.000000 -10.343217 -39.610290 45.135832 -83.200492 -59.767736 -54.117299 -25.950358 14.843642 -25.562286 0.000000 0.000000 0.000000 7.125000 0.000000 0.000000 2.272113 1.980590 2.183489
3.500857 14.220758 6.108826 211.283940 64.896028 218.469279 0.000000 0.000000 0.000000 -12.370412 10.710611 -13.229480 25.151752 19.348870 105.222725 0.086467 1.867898 -6.639945 0.008594 -0.521749 -1.433911 0.000000 0.000000 0.000000 12.834763 8.444682 -35.392054 -7.666152 -15.868045 51.350909 -1.483090 2.304933 -22.406607 -6.359630 14.764289 -46.401856 8.138032 -1.649639 18.473517 6.801512 0.441173 9.299065 2.567060 0.777342 -0.333096 -6.113432 -0.416143 -9.767394 5.209033 1.071104 -13.491810 2.784844 1.037906 -2.762104 0.000000 0.000000 0.000000 1.277219 12.592476 -50.639127 29.705813 -40.638479 11.217975 28.279175 -3.738353 -20.157612 0.000000 0.000000 0.000000 -7.125000 0.000000 0.000000 -0.177351 52.607978 0.033114 0.000000 0.000000 0.000000 -10.441272 -39.847383 45.285596 -80.249970 -59.593107 -51.571322 -26.714536 14.498651 -26.021832 0.000000 0.000000 0.000000 7.125000 0.000000 0.000000 1.871362 1.331543 1.825801
3.619531 14.223560 6.063540 211.593838 64.662406 218.555057 0.000000 0.000000 0.000000 -12.041423 10.786050 -14.243913 25.462344 19.261619 106.165821 0.092561 1.010725 -6.405398 0.022284 -0.821885 -2.259776 0.000000 0.000000 0.000000 13.265183 8.015388 -34.510909 -7.613444 -15.827062 51.157374 -1.523206 1.512829 -22.936726 -6.609108 14.982950 -47.360721 8.396983 -1.577955 18.635802 6.826032 0.614087 9.382186 2.419389 0.881604 -0.318396 -6.144220 -0.598096 -9.767047 5.399766 0.865151 -13.676594 2.857452 0.940980 -2.814668 0.000000 0.000000 0.000000 1.531231 12.886172 -50.840286 29.402615 -40.371730 11.022043 28.336216 -3.693153 -20.230769 0.000000 0.000000 0.000000 -7.125000 0.000000 0.000000 -0.133451 52.699301 0.024998 0.000000 0.000000 0.000000 -10.481331 -40.131634 45.367186 -76.910319 -59.210572 -48.704489 -27.521224 14.198515 -26.162947 0.000000 0.000000 0.000000 7.125000 0.000000 0.000000 1.411974 0.994496 1.380246
